<svg xmlns="http://www.w3.org/2000/svg" fill="none" viewBox="0 0 37 37"><path fill="#006763" d="M14.901 18.894a3.6 3.6 0 1 1 7.2 0 3.6 3.6 0 0 1-7.2 0Zm-1.946 0a5.546 5.546 0 1 0 11.091 0 5.546 5.546 0 0 0-11.091 0ZM22.97 13.13a1.297 1.297 0 1 0 2.593 0 1.297 1.297 0 0 0-2.593 0Zm-8.833 14.556c-1.053-.048-1.626-.223-2.006-.371a3.36 3.36 0 0 1-1.242-.808 3.337 3.337 0 0 1-.808-1.242c-.148-.38-.324-.952-.372-2.005-.052-1.139-.062-1.48-.062-4.365 0-2.884.01-3.225.062-4.364.048-1.053.225-1.625.372-2.006.196-.504.43-.863.808-1.242a3.334 3.334 0 0 1 1.242-.808c.38-.148.953-.324 2.006-.372 1.138-.052 1.48-.062 4.364-.062s3.225.011 4.364.062c1.053.048 1.625.225 2.006.372.504.195.864.43 1.242.808.378.378.612.738.808 1.242.148.38.324.953.372 2.006.052 1.14.063 1.48.063 4.364 0 2.883-.01 3.225-.063 4.365-.048 1.053-.224 1.625-.372 2.005a3.35 3.35 0 0 1-.808 1.242 3.354 3.354 0 0 1-1.242.808c-.38.148-.953.323-2.006.371-1.138.053-1.48.063-4.364.063s-3.226-.01-4.364-.063Zm-.09-19.525c-1.149.052-1.934.234-2.62.501a5.3 5.3 0 0 0-1.914 1.246c-.6.6-.97 1.202-1.246 1.913-.267.687-.449 1.472-.501 2.622-.054 1.151-.066 1.52-.066 4.452 0 2.933.012 3.301.066 4.453.052 1.15.234 1.935.501 2.621a5.28 5.28 0 0 0 1.246 1.913c.6.6 1.202.97 1.913 1.246.688.267 1.472.45 2.622.502 1.152.052 1.52.065 4.453.065 2.933 0 3.3-.012 4.452-.065 1.15-.053 1.935-.235 2.622-.502a5.313 5.313 0 0 0 1.913-1.246c.6-.6.97-1.203 1.246-1.913.267-.686.45-1.471.502-2.621.052-1.153.064-1.52.064-4.453 0-2.933-.012-3.3-.064-4.452-.053-1.15-.235-1.935-.502-2.622a5.311 5.311 0 0 0-1.246-1.913c-.6-.6-1.203-.97-1.912-1.246-.688-.267-1.473-.45-2.622-.501-1.151-.053-1.52-.066-4.453-.066-2.933 0-3.3.012-4.453.066"/></svg>