<svg xmlns="http://www.w3.org/2000/svg" fill="none" viewBox="0 0 37 37"><path fill="#006763" d="M30.5 11.594c-.902.385-1.856.639-2.832.755a4.887 4.887 0 0 0 2.172-2.677 9.959 9.959 0 0 1-3.132 1.18 4.945 4.945 0 0 0-2.796-1.49 4.996 4.996 0 0 0-3.14.502 4.87 4.87 0 0 0-2.17 2.285 4.759 4.759 0 0 0-.294 3.113 14.16 14.16 0 0 1-5.618-1.47 13.925 13.925 0 0 1-4.522-3.59 4.84 4.84 0 0 0-.66 2.442 4.757 4.757 0 0 0 .578 2.28c.381.702.933 1.3 1.606 1.741a4.925 4.925 0 0 1-2.232-.601v.059a4.785 4.785 0 0 0 1.125 3.052 4.937 4.937 0 0 0 2.835 1.665 4.788 4.788 0 0 1-1.32.2 5.985 5.985 0 0 1-.924-.082 4.85 4.85 0 0 0 1.753 2.396c.824.6 1.818.933 2.843.953A9.975 9.975 0 0 1 6.5 26.312a14.062 14.062 0 0 0 7.548 2.181c1.848.02 3.68-.324 5.392-1.01a13.926 13.926 0 0 0 4.574-2.98 13.652 13.652 0 0 0 3.045-4.488A13.462 13.462 0 0 0 28.1 14.72v-.625a10.015 10.015 0 0 0 2.4-2.5Z"/></svg>