<?xml version="1.0" encoding="UTF-8"?><svg id="Layer_2" xmlns="http://www.w3.org/2000/svg" viewBox="0 0 17 17"><defs><style>.cls-1{fill:#006763;}.cls-2{fill:none;stroke:#006763;}</style></defs><g id="Layer_1-2"><g><path class="cls-1" d="M6.07,7.62c-.11,.27-.16,.57-.16,.88s.05,.61,.16,.88H2.38c-.24,0-.46-.1-.62-.26-.17-.17-.26-.39-.26-.62s.09-.45,.26-.62c.16-.16,.38-.26,.62-.26h3.69Z"/><path class="cls-1" d="M9.12,1.76c.16,.16,.26,.38,.26,.62v3.68c-.27-.11-.57-.16-.88-.16s-.61,.05-.88,.16V2.38c0-.24,.1-.46,.26-.62,.17-.17,.39-.26,.62-.26s.45,.09,.62,.26Z"/><path class="cls-1" d="M8.5,11.1c.31,0,.61-.05,.88-.16v3.68c0,.24-.1,.46-.26,.62-.17,.17-.39,.26-.62,.26s-.45-.09-.62-.26c-.16-.16-.26-.38-.26-.62v-3.68c.27,.11,.57,.16,.88,.16Z"/><path class="cls-1" d="M15.5,8.5c0,.23-.09,.45-.26,.62-.16,.16-.38,.26-.62,.26h-3.68c.11-.27,.16-.57,.16-.88s-.05-.61-.16-.88h3.68c.24,0,.46,.1,.62,.26,.17,.17,.26,.39,.26,.62Z"/><path class="cls-1" d="M13.63,7.62c-.1-.61-.31-1.19-.63-1.73-.46-.8-1.09-1.43-1.89-1.89-.54-.32-1.12-.53-1.73-.63-.29-.05-.58-.07-.88-.07s-.59,.02-.88,.07c-.61,.1-1.19,.31-1.73,.63-.8,.46-1.43,1.09-1.89,1.89-.32,.54-.53,1.12-.63,1.73-.05,.29-.07,.58-.07,.88s.02,.59,.07,.88c.1,.61,.31,1.19,.63,1.73,.46,.8,1.09,1.43,1.89,1.89,.54,.32,1.12,.53,1.73,.63,.29,.05,.58,.07,.88,.07s.59-.02,.88-.07c.61-.1,1.19-.31,1.73-.63,.8-.46,1.43-1.09,1.89-1.89,.32-.54,.53-1.12,.63-1.73,.05-.29,.07-.58,.07-.88s-.02-.59-.07-.88Zm-4.25,3.32c-.27,.11-.57,.16-.88,.16s-.61-.05-.88-.16c-.72-.26-1.3-.83-1.55-1.56-.11-.27-.16-.57-.16-.88s.05-.61,.16-.88c.25-.73,.83-1.3,1.55-1.56,.27-.11,.57-.16,.88-.16s.61,.05,.88,.16c.73,.25,1.3,.83,1.56,1.56,.11,.27,.16,.57,.16,.88s-.05,.61-.16,.88c-.26,.73-.83,1.31-1.56,1.56Z"/><path class="cls-2" d="M8.5,.5h0c4.42,0,8,3.58,8,8h0c0,4.42-3.58,8-8,8h0C4.08,16.5,.5,12.92,.5,8.5H.5C.5,4.08,4.08,.5,8.5,.5Z"/></g></g></svg>
