<?xml version="1.0" encoding="UTF-8"?><svg id="Layer_2" xmlns="http://www.w3.org/2000/svg" viewBox="0 0 389.94 273.48"><defs><style>.cls-1{fill:none;}.cls-2{fill:#fefefe;}.cls-3{fill:#e5efef;}</style></defs><g id="Layer_1-2"><g><path class="cls-1" d="M389.94,60.7v.96c-.26,.76-.05,1.55-.12,2.32,0,2.03,0,4.06,0,6.09,0,3.38,0,6.75,0,10.13,0,.58,0,1.17,0,1.76,0,.43,0,.85,0,1.28,0,.56,0,1.12,0,1.69,0,.43,0,.86,0,1.29-.06,4.28-.26,8.51-1.93,12.57-3.12,7.6-8.33,13.25-15.6,17.01-1.81,.94-3.72,1.64-5.65,2.31-3.22,1.1-3.75,1.91-3.75,5.37,0,40.04,0,80.08,0,120.11,0,3.91-.5,7.82-.21,11.73,.39,5.19,.1,10.38,.21,15.57,0,.4-.01,.8-.02,1.2-.02,.86-.39,1.35-1.32,1.3-.48-.03-.96,0-1.44,0-95.37,0-190.74-.03-286.1,.04-14.99,.01-29.97,.02-44.96,.08-1.6,0-1.71-.1-1.75-1.68-.02-.68,0-1.36,0-2.04,0-48.75,0-97.5,0-146.24,0-3.83-.08-3.96-3.64-5.33-4.08-1.57-8-3.46-11.46-6.15-4.43-3.45-7.79-7.76-9.81-13.05-1.48-3.88-2.3-7.87-2.27-12.04,.03-6.43,.04-12.87,0-19.3-.02-2.35-.18-4.7,0-7.06,.09-1.15,.39-2.18,1.06-3.12,1.64-2.32,3.57-4.4,5.38-6.57,3.19-3.84,6.39-7.66,9.63-11.45,3.63-4.25,7.18-8.56,10.79-12.83,2.96-3.51,5.82-7.1,8.82-10.57,3.76-4.35,7.15-9.01,11.11-13.18C48.74,.92,50.99,.03,53.71,.03c22.34,.03,44.67,.02,67.01,.02,71.79,0,143.57,.02,215.36-.05,3.61,0,6.14,1.42,8.31,4.08,4.51,5.54,9.13,10.99,13.68,16.49,4.71,5.69,9.51,11.3,14.23,16.97,4.03,4.85,8.09,9.67,12.2,14.46,1.38,1.61,2.66,3.3,4.09,4.85,1.03,1.11,1.05,2.51,1.33,3.85Z"/><path class="cls-1" d="M389.71,80.38c0-3.45,0-6.89,0-10.34,.08-.15,.16-.15,.22,.01v10.31c-.06,.16-.14,.16-.22,.02Z"/><path class="cls-1" d="M389.94,70.06c-.07,0-.15,0-.22-.01,0-2.07,0-4.13,0-6.2,.06-.17,.13-.18,.22-.02v6.23Z"/><path class="cls-1" d="M389.94,63.82c-.07,0-.15,.01-.22,.02,.05-.73-.23-1.49,.22-2.18v2.16Z"/><path class="cls-1" d="M389.71,80.38c.07,0,.15-.01,.22-.02v1.68c-.06,.16-.13,.16-.21,.02,0-.56,0-1.12-.01-1.68Z"/><path class="cls-1" d="M389.73,84.93c0-.56,0-1.11-.01-1.67,.06-.17,.13-.18,.22-.02v1.68c-.06,.16-.13,.17-.2,0Z"/><path class="cls-1" d="M389.94,83.24c-.07,0-.14,0-.22,.02,0-.4,0-.8,0-1.2,.07,0,.14-.01,.21-.01v1.2Z"/><path class="cls-3" d="M389.73,84.93c.07,0,.13,0,.2,0v1.2c-.07,0-.13,0-.2,0,0-.4,0-.8,0-1.2Z"/><path class="cls-2" d="M195.04,13.19c35.05,0,70.11,0,105.16,0,9.79,0,19.58,.01,29.38-.07,3.19-.03,5.64,1.02,7.69,3.54,6.07,7.45,12.26,14.81,18.44,22.18,6.1,7.27,12.21,14.53,18.38,21.74,2,2.34,2.91,4.87,2.81,7.98-.19,5.87,.04,11.75-.18,17.62-.24,6.51-2.83,12.07-8.06,16.04-6.57,4.99-13.84,5.53-21.21,2.04-6.69-3.17-10.15-8.86-11.2-16.07-.64-4.4-.35-8.85-.39-13.28-.04-3.47,.08-6.95,.09-10.43,0-2.13-.62-2.75-2.77-2.87-2.43-.13-4.86-.39-7.29,.02-1.33,.22-2.14,.97-2.46,2.28-.24,.97-.4,1.95-.43,2.95-.14,6.67,0,13.34-.12,20.02-.18,10.68-8.99,19.17-19.5,19.41-8.46,.19-14.86-3.38-18.92-10.86-1.47-2.72-1.79-5.75-1.97-8.81-.4-6.87-.23-13.74-.17-20.61,0-.44,0-.88-.02-1.32-.12-2.18-.92-3.04-3.11-3.09-2.23-.04-4.48-.11-6.7,.25-2.01,.32-2.74,1.09-2.98,3.15-.41,3.59-.13,7.19-.2,10.78-.09,4.39,.28,8.79-.49,13.15-1.5,8.6-7.55,15.69-16.63,17.2-9.01,1.49-17.69-3.08-21.56-11.36-1.79-3.83-2.28-7.85-2.29-12-.01-5.83-.11-11.67,.09-17.5,.02-.48-.01-.96-.07-1.43-.18-1.41-.82-2.08-2.24-2.18-2.39-.16-4.8-.19-7.19,.05-2.19,.21-3.15,1.31-3.35,3.64-.34,3.95-.15,7.91-.17,11.86-.02,4.63,.18,9.28-.78,13.85-1.76,8.32-9.32,14.71-17.81,15.22-8.4,.5-14.79-2.85-19.31-9.85-1.77-2.74-2.57-5.84-2.69-9.08-.28-7.35-.24-14.7-.09-22.05,0-.48,.02-.96-.04-1.43-.19-1.55-.76-2.13-2.31-2.21-2.27-.12-4.55-.25-6.83-.03-2.43,.23-3.49,1.27-3.69,3.71-.25,3.11-.16,6.23-.14,9.34,.03,4.63,.25,9.27-.32,13.89-1.32,10.59-10.34,18.18-21.01,17.77-9.13-.35-16.74-6.71-18.85-15.59-.93-3.91-.74-7.86-.81-11.8-.08-4.59,.07-9.19,.11-13.78,.03-2.81-.62-3.48-3.4-3.55-1.96-.05-3.92-.1-5.87,.06-2.18,.18-3.22,1.02-3.5,3.2-.44,3.34-.2,6.7-.21,10.05-.01,4.79,.19,9.6-.45,14.36-1,7.44-6.23,13.87-13.48,16.03-6.41,1.92-12.52,1.28-18.06-2.58-5.47-3.8-8.58-9.1-8.72-15.82-.15-7.23-.03-14.46-.03-21.7,0-.4,.01-.8-.01-1.2-.1-1.55-.76-2.28-2.29-2.36-2.35-.13-4.71-.27-7.07-.02-2.11,.22-2.99,.99-3.32,3.1-.56,3.57-.22,7.18-.27,10.77-.06,3.99,.17,7.99-.22,11.98-1.2,12.33-11.82,21.07-24.69,18.39-7.3-1.52-12.11-6.2-14.69-13.22-1.52-4.13-1.28-8.41-1.35-12.67-.07-4.55,0-9.11-.03-13.66-.01-1.84,.81-3.28,1.94-4.63,7.44-8.86,14.88-17.71,22.31-26.58,5.3-6.33,10.6-12.66,15.84-19.03,1.69-2.05,3.77-2.94,6.37-2.93,6.55,.03,13.11,.02,19.66,.02,.48,0,.96,0,1.44,0,38.09,0,76.18,0,114.27,0Z"/><path class="cls-2" d="M218.22,153.86c-.05,18.14-.1,36.28-.11,54.41-.01,8.07,.07,16.14,.1,24.21,.01,3.59-.66,4.26-4.27,4.26-22.02,.01-44.04,.01-66.06,.01s-42.61,0-63.91-.01c-1.16,0-2.32,.03-3.48-.03-2.13-.12-3.03-1-3.05-3.18-.04-4.87,0-9.75,0-14.62-.02-21.58-.04-43.15-.05-64.73v-.72c.01-3.63,.93-4.52,4.55-4.48,5.64,.07,11.27,.15,16.9,.15,32.58,0,65.15,0,97.72,0,5.6,0,11.19-.09,16.79-.12,4.2-.02,4.88,.69,4.87,4.85Z"/><path class="cls-2" d="M349.43,120.69c0-1.65-.55-2.41-2.19-2.81-6.36-1.53-11.52-4.94-15.71-9.9-1.49-1.77-2.31-1.81-3.87-.13-3.83,4.13-8.26,7.39-13.54,9.39-11.29,4.27-21.7,2.34-31.33-4.62-1.95-1.41-3.66-3.07-5.32-4.8-1.38-1.43-2.07-1.37-3.46,.08-.53,.55-1.05,1.1-1.6,1.62-6.27,6.07-13.68,9.62-22.46,9.88-10.37,.3-18.89-3.85-25.93-11.27-1.72-1.82-2.42-1.86-4.07-.06-.3,.33-.6,.65-.9,.97-5.09,5.43-11.33,8.73-18.65,9.92-6.17,1-12.19,.32-17.96-2.12-4.11-1.75-7.94-3.92-10.67-7.62-.4-.54-.9-1.02-1.41-1.47-1.69-1.5-3.14-1.42-4.67,.24-.33,.36-.59,.76-.9,1.13-.88,1.07-1.62,2.25-2.78,3.09-2.89,2.11-5.95,3.85-9.31,5.08-9.58,3.52-18.81,2.68-27.69-2.24-3.58-1.98-6.77-4.49-9.41-7.65-.71-.86-1.49-1.01-2.35-.2-.67,.63-1.34,1.24-1.99,1.88-4.9,4.8-10.58,8.23-17.3,9.68-8.91,1.93-17.1,.03-24.63-4.97-2.47-1.64-4.68-3.59-6.74-5.72-1.61-1.67-2.77-1.72-4.07-.11-3.72,4.59-8.26,7.9-14.09,9.32-1.33,.32-2.59,.88-3.26,2.21-.53,1.03-.49,2.17-.49,3.28,0,8.07,.05,16.14,.05,24.22-.02,36.16-.04,72.32-.06,108.48,0,4.11,.71,4.84,4.79,4.83,8.32-.02,16.63-.07,24.94-.07,25.94-.01,51.88-.01,77.82-.01v.02h103.25c2.68,0,2.93-.24,2.93-2.94-.01-25.05-.02-50.1-.02-75.15,0-14.43-.02-28.85-.03-43.28,0-2.54,.35-2.86,2.9-2.86,5.6,.03,11.2,.02,16.79,.02,15.63,.01,31.26,.02,46.88,.03,1.24,0,2.49-.07,3.72,.01,1.58,.09,1.93,.5,1.96,2.09,.03,1.16,0,2.32,0,3.48-.01,29.01-.01,58.02-.02,87.03,0,9.23-.04,18.46-.04,27.69,.01,3.31,.99,4.13,4.31,3.95,2.51-.14,5.03-.17,7.55-.16,2.43,0,4.87,.11,7.31,.18,2.69,.08,3.67-.83,3.72-3.47v-.6c-.01-15.74-.03-31.48-.03-47.23,0-29.44,.02-58.89,.03-88.34Zm-118.26,124.15c.01,4.21-.7,4.91-4.96,4.91h-78.54v-.06H80.28c-3.76,0-7.51,.02-11.27,.03-.56,0-1.12-.02-1.68-.06-1.91-.16-2.79-.96-2.84-2.86-.09-3.24-.05-6.48-.05-9.71,0-32.21,0-64.41-.03-96.62,0-3.59,.93-4.5,4.57-4.48,11.87,.06,23.74,.15,35.61,.16,18.46,.02,36.93-.03,55.39-.04,12.87,0,25.74,.06,38.61,.04,9.28-.01,18.55-.1,27.82-.15,.16-.01,.32-.01,.48-.01,3.31,.05,4.29,1.02,4.28,4.32-.02,17.3-.08,34.6-.08,51.9s.06,35.09,.08,52.63Z"/><path class="cls-2" d="M267.27,204.55c0-17.06,0-34.12,0-51.18,0-3.81,.65-4.49,4.47-4.43,12.43,.2,24.85,.24,37.28-.02,3.78-.08,4.72,.85,4.69,4.61-.2,28.97-.01,57.94-.07,86.91-.01,5.15,.03,10.31,.05,15.46,.02,3.78-.71,4.47-4.47,4.41-12.59-.21-25.18-.16-37.77-.03-.04,0-.08,0-.12,0-3.26,.07-4.07-.69-4.07-3.95,0-6.87,.05-13.74,.05-20.62,0-10.39,0-20.78,0-31.17-.02,0-.04,0-.06,0Z"/></g></g></svg>
