<?xml version="1.0" encoding="UTF-8"?><svg id="Layer_2" xmlns="http://www.w3.org/2000/svg" viewBox="0 0 439.67 309.4"><defs><style>.cls-1{fill:none;}.cls-2{fill:#006763;}.cls-3{fill:#fff;}.cls-4{fill:#9dc8c7;}.cls-5{fill:#318582;}.cls-6{fill:#dfeeed;}</style></defs><g id="Layer_1-2"><g><path class="cls-2" d="M260.82,189.94c.01-6.31,.03-12.62,.05-18.92,.01-3.96,.02-7.91,.02-11.86,0-.36,.02-.71-.02-1.07-.05-.57-.12-1.15-.24-1.71-.24-1.04-.9-1.71-1.92-2.02-.17-.05-.35-.09-.52-.13-.82-.22-1.66-.28-2.51-.28-1.86,.02-3.73,.04-5.59,.05-4.18,.03-8.36,.07-12.53,.09-4,.02-8,.05-12,.05-14.4-.01-28.79-.04-43.19-.04-11.15,0-22.31,.04-33.46,.04-14.4-.01-28.79-.03-43.19-.05-3.69,0-7.38-.03-11.06-.05-3.42-.01-6.85-.02-10.27-.04-.53,0-1.06-.01-1.6-.02-1.82-.01-3.64-.01-5.46-.03-.81,0-1.59,.16-2.37,.35-1.11,.28-1.72,1.04-2.03,2.08-.09,.3-.13,.61-.15,.92-.04,.58-.07,1.15-.07,1.73,.01,2.93,.03,5.86,.03,8.79,.02,6.67,.03,13.33,.04,19.99,.01,6.13,.01,12.26,.01,18.39,0,8.57-.01,17.15-.01,25.72-.01,7.33-.01,14.66-.02,21.99,0,4.17-.01,8.35-.02,12.52,0,2.84-.02,5.69-.04,8.53,0,.93-.01,1.86,.01,2.8,.01,.62,.02,1.25,.14,1.85,.23,1.26,.93,2.22,2.41,2.5,.22,.04,.44,.07,.66,.08,.62,.03,1.25,.08,1.87,.08,4.26,0,8.53-.02,12.79-.03,5.2-.01,10.4-.02,15.6-.02,7.47-.01,14.93-.02,22.4-.02,12.66-.01,25.32,0,37.99,0v.02c13.2,0,26.39-.01,39.59,0,9.51,0,19.02,.01,28.53,.02,1.91,0,3.82,.02,5.73,.03,5.02,.01,10.04,.03,15.06,.03,.71,0,1.42-.06,2.13-.11,.31-.03,.62-.09,.92-.16,1.19-.32,1.89-1.1,2.14-2.3,.17-.78,.23-1.58,.22-2.38-.01-1.6-.01-3.2-.02-4.8-.02-5.55-.04-11.1-.05-16.65-.01-3.73-.02-7.46-.03-11.2v-29.31c.01-8.48,.02-16.97,.03-25.45Zm-14.55-12.87c-.01,1.82-.03,3.64-.04,5.46-.02,2.89-.03,5.78-.04,8.66-.02,14.53-.04,29.06-.05,43.58-.01,5.25,.03,10.49,.06,15.73,.02,4.13,.05,8.26,.07,12.39,.01,.76-.01,1.51-.18,2.26-.03,.13-.04,.26-.07,.39-.25,.87-.75,1.51-1.65,1.76-.34,.1-.68,.2-1.03,.23-.58,.06-1.16,.09-1.73,.09-1.51,.01-3.02,.01-4.54,.01-1.6-.01-3.2-.03-4.79-.03-7.6-.01-15.2-.02-22.8-.03-7.83,0-15.65-.01-23.47-.01-6.36-.01-12.71,0-19.07,0-12.53,0-25.06-.01-37.59,0-4.76,0-9.52,.01-14.27,.01-3.69,0-7.38,.02-11.07,.03-3.06,.01-6.13,.02-9.2,.03-.66,0-1.33,.04-2,.03-.75-.02-1.5-.06-2.26-.11-.26-.02-.53-.06-.79-.12-1.23-.24-1.9-1.07-2.2-2.22-.13-.47-.16-.97-.17-1.45-.03-1.16-.02-2.31-.02-3.47,.01-2.35,.03-4.71,.03-7.06,.01-7.51,.02-15.02,.03-22.53,.01-5.64,.02-11.28,.02-16.92-.01-9.64-.03-19.28-.05-28.92-.01-3.55-.04-7.11-.05-10.66,0-.8,.04-1.6,.07-2.4,.03-.69,.29-1.29,.67-1.85,.28-.42,.66-.71,1.15-.86,.9-.29,1.82-.44,2.75-.45,1.56-.01,3.11,0,4.67,.03,.62,0,1.24,.02,1.86,.03,3.51,.02,7.02,.04,10.54,.05,2.35,.02,4.71,.04,7.06,.04h105.86c3.29,0,6.58-.02,9.87-.04,3.11-.02,6.22-.06,9.33-.09,.76-.01,1.51,.06,2.26,.19,.26,.04,.51,.11,.77,.18,1,.28,1.59,.94,1.82,1.93,.16,.69,.26,1.4,.25,2.11,0,1.33,0,2.67-.01,4Zm14.55,12.87c.01-6.31,.03-12.62,.05-18.92,.01-3.96,.02-7.91,.02-11.86,0-.36,.02-.71-.02-1.07-.05-.57-.12-1.15-.24-1.71-.24-1.04-.9-1.71-1.92-2.02-.17-.05-.35-.09-.52-.13-.82-.22-1.66-.28-2.51-.28-1.86,.02-3.73,.04-5.59,.05-4.18,.03-8.36,.07-12.53,.09-4,.02-8,.05-12,.05-14.4-.01-28.79-.04-43.19-.04-11.15,0-22.31,.04-33.46,.04-14.4-.01-28.79-.03-43.19-.05-3.69,0-7.38-.03-11.06-.05-3.42-.01-6.85-.02-10.27-.04-.53,0-1.06-.01-1.6-.02-1.82-.01-3.64-.01-5.46-.03-.81,0-1.59,.16-2.37,.35-1.11,.28-1.72,1.04-2.03,2.08-.09,.3-.13,.61-.15,.92-.04,.58-.07,1.15-.07,1.73,.01,2.93,.03,5.86,.03,8.79,.02,6.67,.03,13.33,.04,19.99,.01,6.13,.01,12.26,.01,18.39,0,8.57-.01,17.15-.01,25.72-.01,7.33-.01,14.66-.02,21.99,0,4.17-.01,8.35-.02,12.52,0,2.84-.02,5.69-.04,8.53,0,.93-.01,1.86,.01,2.8,.01,.62,.02,1.25,.14,1.85,.23,1.26,.93,2.22,2.41,2.5,.22,.04,.44,.07,.66,.08,.62,.03,1.25,.08,1.87,.08,4.26,0,8.53-.02,12.79-.03,5.2-.01,10.4-.02,15.6-.02,7.47-.01,14.93-.02,22.4-.02,12.66-.01,25.32,0,37.99,0v.02c13.2,0,26.39-.01,39.59,0,9.51,0,19.02,.01,28.53,.02,1.91,0,3.82,.02,5.73,.03,5.02,.01,10.04,.03,15.06,.03,.71,0,1.42-.06,2.13-.11,.31-.03,.62-.09,.92-.16,1.19-.32,1.89-1.1,2.14-2.3,.17-.78,.23-1.58,.22-2.38-.01-1.6-.01-3.2-.02-4.8-.02-5.55-.04-11.1-.05-16.65-.01-3.73-.02-7.46-.03-11.2v-29.31c.01-8.48,.02-16.97,.03-25.45Zm-14.55-12.87c-.01,1.82-.03,3.64-.04,5.46-.02,2.89-.03,5.78-.04,8.66-.02,14.53-.04,29.06-.05,43.58-.01,5.25,.03,10.49,.06,15.73,.02,4.13,.05,8.26,.07,12.39,.01,.76-.01,1.51-.18,2.26-.03,.13-.04,.26-.07,.39-.25,.87-.75,1.51-1.65,1.76-.34,.1-.68,.2-1.03,.23-.58,.06-1.16,.09-1.73,.09-1.51,.01-3.02,.01-4.54,.01-1.6-.01-3.2-.03-4.79-.03-7.6-.01-15.2-.02-22.8-.03-7.83,0-15.65-.01-23.47-.01-6.36-.01-12.71,0-19.07,0-12.53,0-25.06-.01-37.59,0-4.76,0-9.52,.01-14.27,.01-3.69,0-7.38,.02-11.07,.03-3.06,.01-6.13,.02-9.2,.03-.66,0-1.33,.04-2,.03-.75-.02-1.5-.06-2.26-.11-.26-.02-.53-.06-.79-.12-1.23-.24-1.9-1.07-2.2-2.22-.13-.47-.16-.97-.17-1.45-.03-1.16-.02-2.31-.02-3.47,.01-2.35,.03-4.71,.03-7.06,.01-7.51,.02-15.02,.03-22.53,.01-5.64,.02-11.28,.02-16.92-.01-9.64-.03-19.28-.05-28.92-.01-3.55-.04-7.11-.05-10.66,0-.8,.04-1.6,.07-2.4,.03-.69,.29-1.29,.67-1.85,.28-.42,.66-.71,1.15-.86,.9-.29,1.82-.44,2.75-.45,1.56-.01,3.11,0,4.67,.03,.62,0,1.24,.02,1.86,.03,3.51,.02,7.02,.04,10.54,.05,2.35,.02,4.71,.04,7.06,.04h105.86c3.29,0,6.58-.02,9.87-.04,3.11-.02,6.22-.06,9.33-.09,.76-.01,1.51,.06,2.26,.19,.26,.04,.51,.11,.77,.18,1,.28,1.59,.94,1.82,1.93,.16,.69,.26,1.4,.25,2.11,0,1.33,0,2.67-.01,4Zm193.4-109.22c-.25-1.48-.83-2.74-1.83-3.92-3.95-4.68-7.91-9.35-11.85-14.03-4.34-5.17-8.67-10.34-12.99-15.52-4.89-5.85-9.8-11.7-14.73-17.52-3.58-4.24-6.97-8.63-10.6-12.83-1.45-1.69-3.24-2.89-5.44-3.4-1.78-.42-3.59-.56-5.42-.55-30.74,.18-61.49,.03-92.24,.18-39.5,.21-79,.24-118.5-.11-34.48-.3-68.97-.05-103.46-.07-4.56,0-8.24,1.71-11.17,5.2-4.42,5.26-8.69,10.66-13.14,15.9-5.23,6.15-10.35,12.4-15.55,18.58-6.86,8.14-13.67,16.33-20.6,24.42-1.29,1.51-2.06,3.22-2.13,5.32-.07,1.82,.05,3.63,.05,5.44,0,7.51,.02,15.02-.01,22.52,0,3.8,.34,7.52,1.43,11.17,1.51,5.04,3.82,9.63,7.34,13.59,4.81,5.41,10.81,9,17.51,11.52,4.41,1.65,4.48,1.69,4.48,6.42v165.65c0,3.56,.02,3.59,3.55,3.59H405.94c.36,0,.71,0,1.07,0,2.09-.05,2.53-.49,2.57-2.64,.01-.53,.01-1.06,.01-1.59-.01-6.04-.06-12.07-.22-18.11-.16-5.99,.14-11.99,.16-17.97,.12-39.36,.06-78.72,.06-118.08,0-.75,.03-1.51-.07-2.26-.39-3.05-.18-6.12-.15-9.18,.03-3.13,1.43-5.15,4.64-5.91,2.2-.53,4.27-1.51,6.28-2.56,5.56-2.92,10.21-6.9,13.71-12.14,3.35-4.99,5.52-10.41,5.54-16.54v-2.28c.05-.54-.14-1.11,.13-1.63v-30.65Zm-85.66,109.15c-.03,4.09-.08,8.17-.09,12.26-.03,7.46-.03,14.92-.03,22.39,0,5.42,.01,10.84,.02,16.25,.01,2.31,.04,4.62,.03,6.93,0,12.84-.03,25.68-.02,38.52,0,5.28,.06,10.57,.09,15.85,.01,.85-.01,1.69-.17,2.53-.3,1.52-1,2.19-2.6,2.39-.62,.08-1.24,.11-1.86,.1-9.02-.14-18.04-.15-27.07-.12-4.17,.02-8.35,.04-12.53,.06-1.15,0-2.31,.03-3.46,.03-.58,0-1.16-.03-1.73-.06-.27-.01-.54-.05-.79-.11-1.11-.27-1.79-.96-2-2.08-.15-.74-.21-1.49-.2-2.25,.02-1.86,.03-3.73,.03-5.6,.01-5.82,.02-11.63,.03-17.45,.02-5.56,.03-11.11,.04-16.66v-18.66h.02v-12.79c0-6.62-.01-13.24-.02-19.86-.01-3.82-.02-7.64-.04-11.46-.01-4.62-.04-9.24-.05-13.86,0-.66,.06-1.33,.11-1.99,.01-.18,.04-.35,.08-.53,.2-1.01,.82-1.65,1.79-1.94,.69-.2,1.38-.33,2.1-.31,1.34,.02,2.67,.01,4,.03,2.71,.03,5.42,.06,8.13,.09,3.6,.03,7.2,.09,10.8,.09,3.86-.01,7.73-.08,11.6-.13,2.88-.03,5.77-.08,8.66-.11,.89-.01,1.78-.01,2.63,.3,.05,.01,.09,.01,.13,.03,1.19,.31,1.91,1.07,2.16,2.27,.15,.7,.24,1.4,.24,2.12-.01,1.24-.02,2.49-.03,3.73Zm40.28,114.17c-.04,.73-.29,1.39-.72,1.98-.24,.33-.53,.6-.92,.73-.34,.11-.68,.23-1.03,.26-.62,.05-1.24,.08-1.86,.06-2.8-.06-5.6-.19-8.4-.2-2.62,0-5.24,.12-7.86,.19-.45,.01-.89,.05-1.33,.03-.45-.01-.89-.04-1.33-.12-.89-.16-1.55-.61-1.89-1.49-.21-.54-.41-1.08-.43-1.67-.02-.44-.05-.88-.05-1.33,0-2.09,.01-4.17,.02-6.26v-.53c.01-6.31,.02-12.62,.02-18.93,.01-34.87,.01-69.74,.02-104.62,0-.93,.03-1.86,.01-2.8-.01-.44-.06-.88-.16-1.31-.1-.47-.42-.79-.89-.9-.51-.13-1.03-.26-1.57-.26-.31,.01-.62,0-.93,0h-62.4c-2.31,0-4.62,.04-6.93,.04-1.82-.01-3.65-.03-5.47-.06-.71,0-1.42,.02-2.1,.25-.57,.2-.9,.57-.96,1.16-.05,.62-.1,1.24-.1,1.86,0,3.69,.03,7.37,.03,11.06v119.81c0,1.07,.01,2.13,.02,3.2,0,.63-.07,1.24-.24,1.84-.07,.28-.25,.48-.48,.61-.31,.19-.64,.31-1.01,.33-.53,.02-1.06,.05-1.6,.05-8.04,0-16.08,0-24.13,0h-122.92c-10.76-.01-21.51-.02-32.27-.02-8.62,0-17.24,.01-25.87,.02-6.75,0-13.51,.02-20.26,.04-2.4,0-4.8,.02-7.2,.02-.62,0-1.24-.03-1.86-.08-.35-.03-.7-.12-1.05-.21-1.04-.26-1.66-.96-1.97-1.96-.1-.3-.16-.61-.19-.92-.05-.66-.11-1.32-.11-1.99,0-5.6,.04-11.19,.06-16.79v-.53c0-9.11,.02-18.22,.02-27.32,.01-19.59,.02-39.19,.02-58.78,0-6.7-.01-13.41-.02-20.12,0-4.58-.01-9.15-.02-13.73-.01-4.22-.03-8.44-.03-12.66,0-.66,.06-1.33,.08-1.99,.02-.54,.14-1.08,.37-1.55,.37-.75,.86-1.46,1.64-1.86,.92-.47,1.86-.85,2.87-1.07,1.88-.4,3.6-1.24,5.34-2.02,1.04-.68,2.15-1.23,3.17-1.96,1.24-.88,2.4-1.83,3.49-2.87,1.06-1.01,2.07-2.08,2.97-3.23,.45-.58,.99-1.02,1.59-1.4,.41-.25,.82-.28,1.27-.08,.75,.32,1.39,.8,1.94,1.39,1.33,1.43,2.78,2.75,4.28,3.99,1.51,1.25,3.11,2.36,4.77,3.4,1.14,.7,2.35,1.26,3.5,1.92,.08,.05,.15,.09,.24,.13,1.76,.72,3.49,1.52,5.35,2.01,.6,.16,1.19,.36,1.79,.49,.91,.21,1.83,.41,2.75,.54,3.05,.42,6.1,.5,9.17,.16,1.19-.14,2.39-.27,3.55-.57,1.45-.39,2.93-.73,4.34-1.26,1.41-.52,2.82-1.07,4.16-1.78,1.22-.64,2.44-1.28,3.6-2.01,.9-.57,1.78-1.17,2.64-1.8,1.51-1.11,2.91-2.33,4.28-3.59,.66-.6,1.26-1.26,1.86-1.91,.43-.45,.93-.83,1.46-1.15,.45-.27,.95-.28,1.38,.07,.3,.25,.62,.51,.85,.83,.58,.8,1.3,1.46,2.01,2.13,1.36,1.27,2.76,2.5,4.28,3.59,1.76,1.28,3.6,2.43,5.54,3.43,1.5,.79,3.07,1.39,4.62,2.04,.41,.17,.84,.3,1.27,.42,1.15,.32,2.3,.65,3.47,.93,1.17,.28,2.36,.44,3.55,.55,1.68,.16,3.37,.29,5.06,.21,2.13-.1,4.26-.25,6.34-.74,1.51-.35,3.03-.71,4.49-1.23,1.55-.54,3.08-1.14,4.55-1.87,1.24-.62,2.45-1.28,3.63-1.98,1.02-.62,2.05-1.25,2.98-2.01,.1-.08,.2-.17,.31-.24,.93-.57,1.6-1.4,2.25-2.25,.6-.77,1.18-1.55,1.8-2.31,.5-.63,1.11-1.14,1.86-1.48,.73-.34,1.44-.33,2.17,.01,.66,.3,1.24,.7,1.74,1.22,.52,.54,1.01,1.12,1.51,1.68,.35,.41,.69,.81,1.02,1.23,.83,1.06,1.86,1.9,2.94,2.69,1.29,.95,2.63,1.82,4.03,2.58,1.52,.83,3.1,1.54,4.71,2.19,2.08,.82,4.23,1.32,6.39,1.83,1.12,.26,2.27,.41,3.43,.47,.53,.03,1.06,.08,1.59,.12,1.25,.09,2.49,.11,3.73,.02,1.42-.1,2.84-.16,4.25-.41,.56-.1,1.14-.18,1.7-.31,1.08-.26,2.16-.53,3.22-.84,.68-.19,1.37-.37,2.01-.69,.48-.24,1-.38,1.49-.58,.45-.18,.91-.36,1.35-.57,1.48-.72,2.92-1.5,4.31-2.38,.79-.5,1.55-1.04,2.28-1.61,.95-.74,1.87-1.5,2.76-2.31,.69-.62,1.37-1.27,1.98-1.98,.43-.5,.89-.98,1.34-1.47,.4-.44,.89-.75,1.41-1,.29-.15,.61-.14,.9,.01,.62,.34,1.21,.74,1.69,1.28,1.33,1.49,2.8,2.85,4.32,4.14,.88,.74,1.85,1.38,2.77,2.07,.89,.67,1.85,1.23,2.81,1.79,1,.58,2.02,1.12,3.07,1.59,1.71,.75,3.42,1.48,5.24,1.94,.73,.18,1.45,.43,2.18,.59,.96,.21,1.92,.4,2.89,.52,2.78,.33,5.57,.47,8.37,.16,.93-.1,1.86-.17,2.78-.34,.48-.09,.97-.15,1.44-.27,1.25-.33,2.5-.62,3.72-1.04,1.63-.56,3.27-1.13,4.8-1.96,.9-.48,1.81-.92,2.7-1.44,2.93-1.72,5.55-3.82,7.95-6.21,.57-.57,1.13-1.14,1.68-1.72,.4-.42,.86-.76,1.38-1.03,.35-.19,.67-.16,1.01,.02,.63,.34,1.17,.8,1.66,1.32,1.18,1.26,2.46,2.42,3.77,3.57,1.27,1.11,2.64,2.09,4.03,3.05,.73,.5,1.49,.97,2.27,1.39,1.41,.75,2.8,1.52,4.31,2.09,1.12,.42,2.2,.93,3.37,1.22,.86,.21,1.71,.51,2.57,.71,.95,.21,1.91,.39,2.88,.51,1.63,.21,3.27,.32,4.92,.32,2.23,0,4.43-.24,6.63-.59,.09,0,.18-.02,.26-.05,1.63-.45,3.25-.89,4.88-1.34,1.45-.67,2.97-1.16,4.39-1.92,1.06-.56,2.11-1.13,3.14-1.74,1.1-.67,2.15-1.41,3.18-2.2,.7-.54,1.41-1.07,2.06-1.67,.76-.69,1.52-1.36,2.26-2.07,.79-.77,1.49-1.65,2.38-2.32,.1-.08,.2-.18,.31-.26,.53-.4,1.18-.43,1.73-.07,.53,.35,.98,.78,1.38,1.26,1.73,2.1,3.7,3.95,5.86,5.6,.8,.62,1.65,1.2,2.52,1.74,1.36,.84,2.81,1.51,4.25,2.21,.16,.08,.33,.14,.49,.19,1.52,.51,3,1.12,4.57,1.44,.18,.03,.34,.12,.51,.16,.79,.18,1.31,.72,1.73,1.37,.17,.26,.26,.56,.27,.88,0,.49,0,.98,0,1.46,0,.85-.04,1.69-.04,2.53v26.13c0,27.09,.01,54.19,.02,81.29,0,4.58-.02,9.15-.02,13.73-.01,3.95-.03,7.91-.02,11.86,.01,5.51,.05,11.02,.08,16.52,0,.58-.01,1.16-.04,1.73Zm30.96-203.52c-.02,2.97-.03,5.95-.05,8.93-.01,1.33-.13,2.66-.34,3.98-.18,1.18-.46,2.34-.82,3.49-.44,1.46-1.04,2.84-1.71,4.19-.56,1.16-1.26,2.24-2.05,3.27-.57,.73-1.13,1.48-1.78,2.15-1.11,1.16-2.33,2.17-3.66,3.08-1.74,1.19-3.61,2.04-5.6,2.71-2.7,.91-5.47,1.15-8.28,1.01-1.07-.05-2.13-.14-3.18-.34-.04,0-.09,0-.13-.01-1.35-.22-4.27-1.25-5.54-1.87-1.16-.56-2.26-1.22-3.31-1.98-.89-.65-1.77-1.33-2.52-2.15-.39-.43-.83-.8-1.21-1.24-.67-.78-1.27-1.6-1.83-2.45-.54-.81-1.06-1.65-1.47-2.53-.96-2.06-1.77-4.17-2.12-6.43-.13-.88-.3-1.75-.42-2.63-.07-.53-.11-1.06-.12-1.59-.04-2.13-.1-4.27-.11-6.4-.02-3.15-.01-6.3,0-9.46,.01-2.53,.06-5.06,.09-7.59,0-.36,.02-.72-.02-1.07-.04-.39-.1-.8-.22-1.17-.21-.62-.61-1.1-1.27-1.26-.43-.1-.87-.22-1.31-.24-1.95-.09-3.9-.16-5.86-.21-.62-.02-1.24,.04-1.86,.1-.44,.04-.88,.12-1.31,.24-1.1,.32-1.86,1.02-2.19,2.13-.3,1.03-.53,2.07-.56,3.14-.02,1.02-.05,2.04-.05,3.07,0,4.3,.02,8.61,.02,12.92,0,2.71-.04,5.42-.19,8.13-.11,2.1-.46,4.14-1.24,6.1-.2,.49-.37,1-.58,1.49-.74,1.72-1.75,3.29-2.9,4.76-.74,.95-1.57,1.82-2.44,2.64-.55,.51-1.15,.98-1.76,1.42-2.15,1.52-4.44,2.76-7,3.47-.99,.27-1.96,.57-2.97,.73-1.64,.26-3.27,.32-4.92,.29-1.25-.03-2.49-.11-3.71-.39-1.73-.39-3.44-.89-5.06-1.63-1.41-.65-2.77-1.41-4.01-2.35-.78-.58-1.54-1.2-2.25-1.87-1.33-1.26-2.43-2.7-3.42-4.24-.43-.67-.85-1.36-1.15-2.09-.91-2.13-1.63-4.31-1.81-6.65-.25-3.15-.45-6.29-.5-9.45-.09-5.11,0-10.21,.05-15.32,.01-1.11,0-2.22-.03-3.33-.01-.73-.28-1.39-.69-1.99-.28-.41-.64-.73-1.14-.86-.39-.1-.78-.2-1.17-.25-.4-.05-.8-.06-1.2-.06-1.55,.03-3.11,.05-4.66,.1-.94,.03-1.87,.11-2.78,.32-.39,.09-.76,.23-1.11,.43-1.03,.58-1.46,1.52-1.62,2.62-.15,1.01-.25,2.02-.25,3.05-.01,3.11-.01,6.22-.02,9.33,0,3.2,0,6.4,0,9.59,.01,1.43-.19,2.84-.37,4.25-.11,.83-.28,1.66-.44,2.49-.18,.96-.42,1.9-.81,2.8-.11,.25-.18,.51-.27,.76-.93,2.52-2.29,4.79-3.97,6.88-1.56,1.93-3.43,3.48-5.52,4.76-1.2,.74-2.46,1.41-3.84,1.82-.64,.19-1.26,.43-1.9,.62-.94,.27-1.9,.44-2.88,.54-2.03,.22-4.08,.23-6.12,0-1.19-.14-2.37-.32-3.51-.74-.45-.17-.93-.28-1.39-.44-1.64-.58-3.17-1.37-4.63-2.32-1.58-1.02-2.97-2.26-4.23-3.64-.8-.88-1.5-1.86-2.17-2.86-.8-1.19-1.39-2.48-2-3.76-.22-.48-.4-.98-.57-1.49-.29-.93-.59-1.86-.84-2.81-.33-1.29-.52-2.61-.6-3.94-.09-1.56-.13-3.11-.15-4.67-.09-6.44-.1-12.88,.06-19.32,.02-.75,.04-1.51-.13-2.25-.23-1-.81-1.67-1.82-1.9-.43-.09-.88-.18-1.32-.18-2.09-.01-4.18-.02-6.26,.03-.71,.01-1.42,.15-2.11,.28-.48,.08-.92,.3-1.33,.6-.63,.47-1.06,1.06-1.23,1.84-.09,.43-.21,.86-.25,1.3-.09,1.11-.2,2.22-.21,3.32-.02,3.38,.01,6.76,0,10.13,0,2.84,0,5.69-.09,8.53-.06,1.77-.26,3.54-.47,5.31-.23,1.99-.78,3.91-1.61,5.75-.68,1.5-1.47,2.93-2.45,4.26-.68,.93-1.4,1.83-2.22,2.65-1.01,1-2.11,1.89-3.29,2.69-1.29,.88-2.67,1.59-4.11,2.15-3.06,1.2-6.25,1.71-9.53,1.6-1.06-.04-2.12-.1-3.18-.26-1.82-.27-3.52-.92-5.24-1.52-1.12-.62-2.32-1.11-3.37-1.87-.72-.52-1.46-1-2.14-1.57-1.2-1.01-2.31-2.1-3.24-3.35-.39-.54-.82-1.04-1.2-1.59-.78-1.1-1.39-2.27-1.95-3.48-.24-.52-.47-1.06-.61-1.62-.4-1.5-.83-2.99-1-4.54-.05-.49-.11-.97-.13-1.46-.06-1.33-.11-2.66-.13-4-.03-3.28-.07-6.57-.06-9.86,.01-3.77,.06-7.55,.11-11.32,.01-.72-.02-1.42-.17-2.12-.17-.81-.64-1.37-1.43-1.62-.42-.13-.86-.22-1.3-.24-2.35-.09-4.71-.19-7.06-.03-.62,.04-1.24,.14-1.84,.28-1.02,.23-1.73,.86-2.18,1.8-.37,.78-.54,1.6-.58,2.45-.06,1.28-.13,2.57-.13,3.86,0,4.31,.04,8.62,.05,12.92,0,2.4-.04,4.8-.19,7.2-.1,1.59-.3,3.18-.82,4.71-.07,.21-.12,.42-.18,.64-.47,1.91-1.3,3.67-2.28,5.37-.82,1.43-1.77,2.77-2.88,3.98-1.18,1.28-2.48,2.41-3.91,3.4-1.1,.76-2.31,1.31-3.47,1.96-.24,.12-.5,.2-.75,.29-1.59,.55-3.18,1.12-4.86,1.35-1.59,.21-3.18,.34-4.79,.26-.93-.04-1.86-.14-2.78-.24-1.74-.2-3.38-.77-4.99-1.41-1.36-.54-2.65-1.22-3.87-2.05-.81-.55-1.58-1.14-2.33-1.77-.6-.52-1.18-1.08-1.72-1.67-1.37-1.52-2.58-3.17-3.51-4.99-.71-1.43-1.39-2.88-1.77-4.45-.24-1.03-.52-2.06-.73-3.11-.18-.91-.28-1.84-.31-2.78-.19-5.41-.24-10.83-.17-16.25,.04-2.53,.1-5.06,.14-7.6,.01-.71,0-1.41-.16-2.11-.22-.97-.8-1.58-1.75-1.82-.47-.12-.96-.19-1.44-.21-2.05-.05-4.09-.1-6.13-.01-.71,.04-1.42,.11-2.12,.26-.53,.11-1.01,.32-1.44,.65-.36,.28-.64,.61-.84,1.02-.47,.93-.67,1.93-.71,2.96-.04,1.37-.08,2.75-.09,4.13,0,3.86,.01,7.72,.03,11.59,.01,2.84-.14,5.68-.26,8.52-.1,2.6-.72,5.11-1.69,7.5-1.06,2.61-2.58,4.95-4.54,7-1.37,1.42-2.89,2.63-4.56,3.65-1.14,.68-2.32,1.31-3.6,1.72-.93,.3-1.86,.59-2.8,.85-1.03,.29-2.1,.41-3.16,.49-1.55,.13-3.11,.14-4.66,.02-1.42-.12-2.82-.31-4.17-.79-.42-.16-.86-.25-1.28-.39-1.79-.57-3.43-1.43-5.01-2.45-.89-.58-1.74-1.23-2.53-1.94-.69-.62-1.38-1.25-1.97-1.98-.5-.62-1-1.24-1.48-1.88-1.23-1.65-2.17-3.45-2.97-5.34-.39-.94-.6-1.95-.79-2.96-.36-1.97-.56-3.95-.55-5.96,.03-5.02-.01-10.04-.01-15.06,0-2.53,.04-5.06,.05-7.59,.01-.45,.01-.89-.02-1.33-.02-.31-.07-.63-.16-.92-.23-.77-.69-1.34-1.51-1.53-.43-.09-.88-.19-1.31-.21-2.14-.09-4.27-.16-6.4-.07-.76,.03-1.51,.1-2.25,.28-.44,.1-.83,.28-1.2,.55-.57,.4-.96,.91-1.16,1.58-.33,1.11-.53,2.24-.56,3.4-.04,1.29-.08,2.58-.07,3.87,0,3.37,.04,6.75,.05,10.12,.01,2.98,0,5.96-.2,8.93-.09,1.42-.28,2.83-.65,4.2-.47,1.72-1.03,3.4-1.87,4.98-.5,.94-.99,1.88-1.6,2.76-.82,1.17-1.7,2.26-2.7,3.29-1.27,1.32-2.72,2.42-4.27,3.36-1.33,.8-2.73,1.49-4.22,1.96-.55,.18-1.1,.36-1.65,.52-.98,.29-1.99,.46-3.01,.57-1.99,.21-3.99,.23-5.99,0-1.19-.14-2.37-.32-3.5-.76-.42-.16-.86-.25-1.28-.39-1.64-.57-3.17-1.37-4.64-2.3-1.01-.65-1.94-1.4-2.85-2.18-.57-.49-1.1-1.04-1.59-1.61-.97-1.1-1.86-2.27-2.6-3.53-.65-1.11-1.27-2.25-1.7-3.47-.5-1.42-1.06-2.82-1.3-4.32-.17-1.05-.36-2.1-.41-3.17-.16-3.6-.21-7.19-.19-10.79,.02-3.87,0-7.73,0-11.59,0-.32-.02-.63-.01-.94,.03-1.5,.43-2.86,1.37-4.08,.74-.94,1.51-1.86,2.27-2.79,.84-1.03,1.71-2.04,2.56-3.06,1.49-1.77,2.97-3.54,4.46-5.3,1.14-1.36,2.28-2.73,3.42-4.08,1-1.19,2.02-2.36,3.02-3.55,.55-.64,1.08-1.29,1.62-1.94,.9-1.1,1.8-2.19,2.74-3.26,.88-1,1.71-2.05,2.56-3.07,1.14-1.36,2.27-2.73,3.41-4.09,1.6-1.91,3.21-3.8,4.8-5.71,1.05-1.26,2.08-2.54,3.13-3.8,1.48-1.77,2.97-3.53,4.45-5.3,.65-.78,1.28-1.59,1.93-2.38,1.39-1.67,2.76-3.36,4.21-4.98,.96-1.08,2.15-1.87,3.59-2.18,.65-.14,1.31-.24,1.97-.3,.57-.06,1.15-.05,1.73-.05h20c19.6,0,39.2,.01,58.8,.02,12.09,0,24.17,.02,36.26,.02h36.8v-.02h23.6c18.49,.01,36.98,.02,55.46,.02,13.51,0,27.03-.01,40.54-.02,6.31,0,12.62-.02,18.93-.02,4.49-.01,8.97-.02,13.46-.02,.8,0,1.6,.04,2.4,.13,1.88,.21,3.47,1.02,4.8,2.36,.28,.29,.56,.57,.82,.88,1.18,1.38,2.3,2.81,3.5,4.19,.99,1.13,1.92,2.33,2.88,3.49,.77,.92,1.55,1.83,2.31,2.75,1.59,1.91,3.17,3.83,4.76,5.74,.65,.79,1.33,1.55,1.98,2.34,.62,.75,1.22,1.52,1.85,2.27,1.12,1.32,2.25,2.63,3.36,3.96,.66,.78,1.27,1.6,1.94,2.36,.97,1.1,1.9,2.24,2.84,3.36,.85,1.02,1.7,2.05,2.55,3.07,.6,.71,1.21,1.41,1.82,2.12,.49,.57,.98,1.15,1.46,1.73,1.57,1.87,3.11,3.77,4.71,5.61,1.63,1.88,3.18,3.82,4.82,5.69,.82,.93,1.61,1.89,2.38,2.86,1.16,1.46,1.9,3.11,2.02,4.99,.04,.62,.04,1.24,.04,1.86-.01,3.51-.02,7.02-.03,10.53Zm-164.62,68.73c-.24-1.04-.9-1.71-1.92-2.02-.17-.05-.35-.09-.52-.13-.82-.22-1.66-.28-2.51-.28-1.86,.02-3.73,.04-5.59,.05-4.18,.03-8.36,.07-12.53,.09-4,.02-8,.05-12,.05-14.4-.01-28.79-.04-43.19-.04-11.15,0-22.31,.04-33.46,.04-14.4-.01-28.79-.03-43.19-.05-3.69,0-7.38-.03-11.06-.05-3.42-.01-6.85-.02-10.27-.04-.53,0-1.06-.01-1.6-.02-1.82-.01-3.64-.01-5.46-.03-.81,0-1.59,.16-2.37,.35-1.11,.28-1.72,1.04-2.03,2.08-.09,.3-.13,.61-.15,.92-.04,.58-.07,1.15-.07,1.73,.01,2.93,.03,5.86,.03,8.79,.02,6.67,.03,13.33,.04,19.99,.01,6.13,.01,12.26,.01,18.39,0,8.57-.01,17.15-.01,25.72-.01,7.33-.01,14.66-.02,21.99,0,4.17-.01,8.35-.02,12.52,0,2.84-.02,5.69-.04,8.53,0,.93-.01,1.86,.01,2.8,.01,.62,.02,1.25,.14,1.85,.23,1.26,.93,2.22,2.41,2.5,.22,.04,.44,.07,.66,.08,.62,.03,1.25,.08,1.87,.08,4.26,0,8.53-.02,12.79-.03,5.2-.01,10.4-.02,15.6-.02,7.47-.01,14.93-.02,22.4-.02,12.66-.01,25.32,0,37.99,0v.02c13.2,0,26.39-.01,39.59,0,9.51,0,19.02,.01,28.53,.02,1.91,0,3.82,.02,5.73,.03,5.02,.01,10.04,.03,15.06,.03,.71,0,1.42-.06,2.13-.11,.31-.03,.62-.09,.92-.16,1.19-.32,1.89-1.1,2.14-2.3,.17-.78,.23-1.58,.22-2.38-.01-1.6-.01-3.2-.02-4.8-.02-5.55-.04-11.1-.05-16.65-.01-3.73-.02-7.46-.03-11.2v-29.31c.01-8.48,.02-16.97,.03-25.45,.01-6.31,.03-12.62,.05-18.92,.01-3.96,.02-7.91,.02-11.86,0-.36,.02-.71-.02-1.07-.05-.57-.12-1.15-.24-1.71Zm-14.36,20.69c-.01,1.82-.03,3.64-.04,5.46-.02,2.89-.03,5.78-.04,8.66-.02,14.53-.04,29.06-.05,43.58-.01,5.25,.03,10.49,.06,15.73,.02,4.13,.05,8.26,.07,12.39,.01,.76-.01,1.51-.18,2.26-.03,.13-.04,.26-.07,.39-.25,.87-.75,1.51-1.65,1.76-.34,.1-.68,.2-1.03,.23-.58,.06-1.16,.09-1.73,.09-1.51,.01-3.02,.01-4.54,.01-1.6-.01-3.2-.03-4.79-.03-7.6-.01-15.2-.02-22.8-.03-7.83,0-15.65-.01-23.47-.01-6.36-.01-12.71,0-19.07,0-12.53,0-25.06-.01-37.59,0-4.76,0-9.52,.01-14.27,.01-3.69,0-7.38,.02-11.07,.03-3.06,.01-6.13,.02-9.2,.03-.66,0-1.33,.04-2,.03-.75-.02-1.5-.06-2.26-.11-.26-.02-.53-.06-.79-.12-1.23-.24-1.9-1.07-2.2-2.22-.13-.47-.16-.97-.17-1.45-.03-1.16-.02-2.31-.02-3.47,.01-2.35,.03-4.71,.03-7.06,.01-7.51,.02-15.02,.03-22.53,.01-5.64,.02-11.28,.02-16.92-.01-9.64-.03-19.28-.05-28.92-.01-3.55-.04-7.11-.05-10.66,0-.8,.04-1.6,.07-2.4,.03-.69,.29-1.29,.67-1.85,.28-.42,.66-.71,1.15-.86,.9-.29,1.82-.44,2.75-.45,1.56-.01,3.11,0,4.67,.03,.62,0,1.24,.02,1.86,.03,3.51,.02,7.02,.04,10.54,.05,2.35,.02,4.71,.04,7.06,.04h105.86c3.29,0,6.58-.02,9.87-.04,3.11-.02,6.22-.06,9.33-.09,.76-.01,1.51,.06,2.26,.19,.26,.04,.51,.11,.77,.18,1,.28,1.59,.94,1.82,1.93,.16,.69,.26,1.4,.25,2.11,0,1.33,0,2.67-.01,4Z"/><path class="cls-5" d="M439.44,100.14c0-.31-.02-.61-.02-.92,0-.27,.07-.52,.25-.72v1.6c-.06,.14-.13,.15-.23,.04Z"/><path class="cls-4" d="M439.44,100.14c.08,0,.16-.01,.23-.04v1.33c-.07,.18-.15,.18-.23,.01,0-.43,0-.87,0-1.3Z"/><path class="cls-6" d="M439.44,101.45c.08,0,.16-.01,.23-.01v.8h-.11s-.11,0-.11,0c0-.26,0-.53-.01-.79Z"/><path class="cls-1" d="M425.28,77.12c-.01,3.51-.02,7.02-.03,10.53-.02,2.97-.03,5.95-.05,8.93-.01,1.33-.13,2.66-.34,3.98-.18,1.18-.46,2.34-.82,3.49-.44,1.46-1.04,2.84-1.71,4.19-.56,1.16-1.26,2.24-2.05,3.27-.57,.73-1.13,1.48-1.78,2.15-1.11,1.16-2.33,2.17-3.66,3.08-1.74,1.19-3.61,2.04-5.6,2.71-2.7,.91-5.47,1.15-8.28,1.01-1.07-.05-2.13-.14-3.18-.34-.04,0-.09,0-.13-.01-1.35-.22-4.27-1.25-5.54-1.87-1.16-.56-2.26-1.22-3.31-1.98-.89-.65-1.77-1.33-2.52-2.15-.39-.43-.83-.8-1.21-1.24-.67-.78-1.27-1.6-1.83-2.45-.54-.81-1.06-1.65-1.47-2.53-.96-2.06-1.77-4.17-2.12-6.43-.13-.88-.3-1.75-.42-2.63-.07-.53-.11-1.06-.12-1.59-.04-2.13-.1-4.27-.11-6.4-.02-3.15-.01-6.3,0-9.46,.01-2.53,.06-5.06,.09-7.59,0-.36,.02-.72-.02-1.07-.04-.39-.1-.8-.22-1.17-.21-.62-.61-1.1-1.27-1.26-.43-.1-.87-.22-1.31-.24-1.95-.09-3.9-.16-5.86-.21-.62-.02-1.24,.04-1.86,.1-.44,.04-.88,.12-1.31,.24-1.1,.32-1.86,1.02-2.19,2.13-.3,1.03-.53,2.07-.56,3.14-.02,1.02-.05,2.04-.05,3.07,0,4.3,.02,8.61,.02,12.92,0,2.71-.04,5.42-.19,8.13-.11,2.1-.46,4.14-1.24,6.1-.2,.49-.37,1-.58,1.49-.74,1.72-1.75,3.29-2.9,4.76-.74,.95-1.57,1.82-2.44,2.64-.55,.51-1.15,.98-1.76,1.42-2.15,1.52-4.44,2.76-7,3.47-.99,.27-1.96,.57-2.97,.73-1.64,.26-3.27,.32-4.92,.29-1.25-.03-2.49-.11-3.71-.39-1.73-.39-3.44-.89-5.06-1.63-1.41-.65-2.77-1.41-4.01-2.35-.78-.58-1.54-1.2-2.25-1.87-1.33-1.26-2.43-2.7-3.42-4.24-.43-.67-.85-1.36-1.15-2.09-.91-2.13-1.63-4.31-1.81-6.65-.25-3.15-.45-6.29-.5-9.45-.09-5.11,0-10.21,.05-15.32,.01-1.11,0-2.22-.03-3.33-.01-.73-.28-1.39-.69-1.99-.28-.41-.64-.73-1.14-.86-.39-.1-.78-.2-1.17-.25-.4-.05-.8-.06-1.2-.06-1.55,.03-3.11,.05-4.66,.1-.94,.03-1.87,.11-2.78,.32-.39,.09-.76,.23-1.11,.43-1.03,.58-1.46,1.52-1.62,2.62-.15,1.01-.25,2.02-.25,3.05-.01,3.11-.01,6.22-.02,9.33,0,3.2-.01,6.4,0,9.59,.01,1.43-.19,2.84-.37,4.25-.11,.83-.28,1.66-.44,2.49-.18,.96-.42,1.9-.81,2.8-.11,.25-.18,.51-.27,.76-.93,2.52-2.29,4.79-3.97,6.88-1.56,1.93-3.43,3.48-5.52,4.76-1.2,.74-2.46,1.41-3.84,1.82-.64,.19-1.26,.43-1.9,.62-.94,.27-1.9,.44-2.88,.54-2.03,.22-4.08,.23-6.12,0-1.19-.14-2.37-.32-3.51-.74-.45-.17-.93-.28-1.39-.44-1.64-.58-3.17-1.37-4.63-2.32-1.58-1.02-2.97-2.26-4.23-3.64-.8-.88-1.5-1.86-2.17-2.86-.8-1.19-1.39-2.48-2-3.76-.22-.48-.4-.98-.57-1.49-.29-.93-.59-1.86-.84-2.81-.33-1.29-.52-2.61-.6-3.94-.09-1.56-.13-3.11-.15-4.67-.09-6.44-.1-12.88,.06-19.32,.02-.75,.04-1.51-.13-2.25-.23-1-.81-1.67-1.82-1.9-.43-.09-.88-.18-1.32-.18-2.09-.01-4.18-.02-6.26,.03-.71,.01-1.42,.15-2.11,.28-.48,.08-.92,.3-1.33,.6-.63,.47-1.06,1.06-1.23,1.84-.09,.43-.21,.86-.25,1.3-.09,1.11-.2,2.22-.21,3.32-.02,3.38,.01,6.76,0,10.13-.01,2.84,0,5.69-.09,8.53-.06,1.77-.26,3.54-.47,5.31-.23,1.99-.78,3.91-1.61,5.75-.68,1.5-1.47,2.93-2.45,4.26-.68,.93-1.4,1.83-2.22,2.65-1.01,1-2.11,1.89-3.29,2.69-1.29,.88-2.67,1.59-4.11,2.15-3.06,1.2-6.25,1.71-9.53,1.6-1.06-.04-2.12-.1-3.18-.26-1.82-.27-3.52-.92-5.24-1.52-1.12-.62-2.32-1.11-3.37-1.87-.72-.52-1.46-1-2.14-1.57-1.2-1.01-2.31-2.1-3.24-3.35-.39-.54-.82-1.04-1.2-1.59-.78-1.1-1.39-2.27-1.95-3.48-.24-.52-.47-1.06-.61-1.62-.4-1.5-.83-2.99-1-4.54-.05-.49-.11-.97-.13-1.46-.06-1.33-.11-2.66-.13-4-.03-3.28-.07-6.57-.06-9.86,.01-3.77,.06-7.55,.11-11.32,.01-.72-.02-1.42-.17-2.12-.17-.81-.64-1.37-1.43-1.62-.42-.13-.86-.22-1.3-.24-2.35-.09-4.71-.19-7.06-.03-.62,.04-1.24,.14-1.84,.28-1.02,.23-1.73,.86-2.18,1.8-.37,.78-.54,1.6-.58,2.45-.06,1.28-.13,2.57-.13,3.86,0,4.31,.04,8.62,.05,12.92,0,2.4-.04,4.8-.19,7.2-.1,1.59-.3,3.18-.82,4.71-.07,.21-.12,.42-.18,.64-.47,1.91-1.3,3.67-2.28,5.37-.82,1.43-1.77,2.77-2.88,3.98-1.18,1.28-2.48,2.41-3.91,3.4-1.1,.76-2.31,1.31-3.47,1.96-.24,.12-.5,.2-.75,.29-1.59,.55-3.18,1.12-4.86,1.35-1.59,.21-3.18,.34-4.79,.26-.93-.04-1.86-.14-2.78-.24-1.74-.2-3.38-.77-4.99-1.41-1.36-.54-2.65-1.22-3.87-2.05-.81-.55-1.58-1.14-2.33-1.77-.6-.52-1.18-1.08-1.72-1.67-1.37-1.52-2.58-3.17-3.51-4.99-.71-1.43-1.39-2.88-1.77-4.45-.24-1.03-.52-2.06-.73-3.11-.18-.91-.28-1.84-.31-2.78-.19-5.41-.24-10.83-.17-16.25,.04-2.53,.1-5.06,.14-7.6,.01-.71,0-1.41-.16-2.11-.22-.97-.8-1.58-1.75-1.82-.47-.12-.96-.19-1.44-.21-2.05-.05-4.09-.1-6.13-.01-.71,.04-1.42,.11-2.12,.26-.53,.11-1.01,.32-1.44,.65-.36,.28-.64,.61-.84,1.02-.47,.93-.67,1.93-.71,2.96-.04,1.37-.08,2.75-.09,4.13,0,3.86,.01,7.72,.03,11.59,.01,2.84-.14,5.68-.26,8.52-.1,2.6-.72,5.11-1.69,7.5-1.06,2.61-2.58,4.95-4.54,7-1.37,1.42-2.89,2.63-4.56,3.65-1.14,.68-2.32,1.31-3.6,1.72-.93,.3-1.86,.59-2.8,.85-1.03,.29-2.1,.41-3.16,.49-1.55,.13-3.11,.14-4.66,.02-1.42-.12-2.82-.31-4.17-.79-.42-.16-.86-.25-1.28-.39-1.79-.57-3.43-1.43-5.01-2.45-.89-.58-1.74-1.23-2.53-1.94-.69-.62-1.38-1.25-1.97-1.98-.5-.62-1-1.24-1.48-1.88-1.23-1.65-2.17-3.45-2.97-5.34-.39-.94-.6-1.95-.79-2.96-.36-1.97-.56-3.95-.55-5.96,.03-5.02-.01-10.04-.01-15.06,0-2.53,.04-5.06,.05-7.59,.01-.45,.01-.89-.02-1.33-.02-.31-.07-.63-.16-.92-.23-.77-.69-1.34-1.51-1.53-.43-.09-.88-.19-1.31-.21-2.14-.09-4.27-.16-6.4-.07-.76,.03-1.51,.1-2.25,.28-.44,.1-.83,.28-1.2,.55-.57,.4-.96,.91-1.16,1.58-.33,1.11-.53,2.24-.56,3.4-.04,1.29-.08,2.58-.07,3.87,0,3.37,.04,6.75,.05,10.12,.01,2.98,0,5.96-.2,8.93-.09,1.42-.28,2.83-.65,4.2-.47,1.72-1.03,3.4-1.87,4.98-.5,.94-.99,1.88-1.6,2.76-.82,1.17-1.7,2.26-2.7,3.29-1.27,1.32-2.72,2.42-4.27,3.36-1.33,.8-2.73,1.49-4.22,1.96-.55,.18-1.1,.36-1.65,.52-.98,.29-1.99,.46-3.01,.57-1.99,.21-3.99,.23-5.99,0-1.19-.14-2.37-.32-3.5-.76-.42-.16-.86-.25-1.28-.39-1.64-.57-3.17-1.37-4.64-2.3-1.01-.65-1.94-1.4-2.85-2.18-.57-.49-1.1-1.04-1.59-1.61-.97-1.1-1.86-2.27-2.6-3.53-.65-1.11-1.27-2.25-1.7-3.47-.5-1.42-1.06-2.82-1.3-4.32-.17-1.05-.36-2.1-.41-3.17-.16-3.6-.21-7.19-.19-10.79,.02-3.87,0-7.73,0-11.59,0-.32-.02-.63,0-.94,.03-1.5,.43-2.86,1.37-4.08,.74-.94,1.51-1.86,2.27-2.79,.84-1.03,1.71-2.04,2.56-3.06,1.49-1.77,2.97-3.54,4.46-5.3,1.14-1.36,2.28-2.73,3.42-4.08,1-1.19,2.02-2.36,3.02-3.55,.55-.64,1.08-1.29,1.62-1.94,.9-1.1,1.8-2.19,2.74-3.26,.88-1,1.71-2.05,2.56-3.07,1.14-1.36,2.27-2.73,3.41-4.09,1.6-1.91,3.21-3.8,4.8-5.71,1.05-1.26,2.08-2.54,3.13-3.8,1.48-1.77,2.97-3.53,4.45-5.3,.65-.78,1.28-1.59,1.93-2.38,1.39-1.67,2.76-3.36,4.21-4.98,.96-1.08,2.15-1.87,3.59-2.18,.65-.14,1.31-.24,1.97-.3,.57-.06,1.15-.05,1.73-.05h20c19.6,0,39.2,.01,58.8,.02,12.09,0,24.17,.02,36.26,.02h36.8v-.02h23.6c18.49,.01,36.98,.02,55.46,.02,13.51,0,27.03-.01,40.54-.02,6.31,0,12.62-.02,18.93-.02,4.49-.01,8.97-.02,13.46-.02,.8,0,1.6,.04,2.4,.13,1.88,.21,3.47,1.02,4.8,2.36,.28,.29,.56,.57,.82,.88,1.18,1.38,2.3,2.81,3.5,4.19,.99,1.13,1.92,2.33,2.88,3.49,.77,.92,1.55,1.83,2.31,2.75,1.59,1.91,3.17,3.83,4.76,5.74,.65,.79,1.33,1.55,1.98,2.34,.62,.75,1.22,1.52,1.85,2.27,1.12,1.32,2.25,2.63,3.36,3.96,.66,.78,1.27,1.6,1.94,2.36,.97,1.1,1.9,2.24,2.84,3.36,.85,1.02,1.7,2.05,2.55,3.07,.6,.71,1.21,1.41,1.82,2.12,.49,.57,.98,1.15,1.46,1.73,1.57,1.87,3.11,3.77,4.71,5.61,1.63,1.88,3.18,3.82,4.82,5.69,.82,.93,1.61,1.89,2.38,2.86,1.16,1.46,1.9,3.11,2.02,4.99,.04,.62,.04,1.24,.04,1.86Z"/><path class="cls-3" d="M260.82,189.94c.01-6.31,.03-12.62,.05-18.92,.01-3.96,.02-7.91,.02-11.86,0-.36,.02-.71-.02-1.07-.05-.57-.12-1.15-.24-1.71-.24-1.04-.9-1.71-1.92-2.02-.17-.05-.35-.09-.52-.13-.82-.22-1.66-.28-2.51-.28-1.86,.02-3.73,.04-5.59,.05-4.18,.03-8.36,.07-12.53,.09-4,.02-8,.05-12,.05-14.4-.01-28.79-.04-43.19-.04-11.15,0-22.31,.04-33.46,.04-14.4-.01-28.79-.03-43.19-.05-3.69,0-7.38-.03-11.06-.05-3.42-.01-6.85-.02-10.27-.04-.53,0-1.06-.01-1.6-.02-1.82-.01-3.64-.01-5.46-.03-.81,0-1.59,.16-2.37,.35-1.11,.28-1.72,1.04-2.03,2.08-.09,.3-.13,.61-.15,.92-.04,.58-.07,1.15-.07,1.73,.01,2.93,.03,5.86,.03,8.79,.02,6.67,.03,13.33,.04,19.99,.01,6.13,.01,12.26,.01,18.39,0,8.57-.01,17.15-.01,25.72-.01,7.33-.01,14.66-.02,21.99,0,4.17-.01,8.35-.02,12.52,0,2.84-.02,5.69-.04,8.53,0,.93-.01,1.86,.01,2.8,.01,.62,.02,1.25,.14,1.85,.23,1.26,.93,2.22,2.41,2.5,.22,.04,.44,.07,.66,.08,.62,.03,1.25,.08,1.87,.08,4.26,0,8.53-.02,12.79-.03,5.2-.01,10.4-.02,15.6-.02,7.47-.01,14.93-.02,22.4-.02,12.66-.01,25.32,0,37.99,0v.02c13.2,0,26.39-.01,39.59,0,9.51,0,19.02,.01,28.53,.02,1.91,0,3.82,.02,5.73,.03,5.02,.01,10.04,.03,15.06,.03,.71,0,1.42-.06,2.13-.11,.31-.03,.62-.09,.92-.16,1.19-.32,1.89-1.1,2.14-2.3,.17-.78,.23-1.58,.22-2.38-.01-1.6-.01-3.2-.02-4.8-.02-5.55-.04-11.1-.05-16.65-.01-3.73-.02-7.46-.03-11.2v-29.31c.01-8.48,.02-16.97,.03-25.45Zm-14.55-12.87c-.01,1.82-.03,3.64-.04,5.46-.02,2.89-.03,5.78-.04,8.66-.02,14.53-.04,29.06-.05,43.58-.01,5.25,.03,10.49,.06,15.73,.02,4.13,.05,8.26,.07,12.39,.01,.76-.01,1.51-.18,2.26-.03,.13-.04,.26-.07,.39-.25,.87-.75,1.51-1.65,1.76-.34,.1-.68,.2-1.03,.23-.58,.06-1.16,.09-1.73,.09-1.51,.01-3.02,.01-4.54,.01-1.6-.01-3.2-.03-4.79-.03-7.6-.01-15.2-.02-22.8-.03-7.83,0-15.65-.01-23.47-.01-6.36-.01-12.71,0-19.07,0-12.53,0-25.06-.01-37.59,0-4.76,0-9.52,.01-14.27,.01-3.69,0-7.38,.02-11.07,.03-3.06,.01-6.13,.02-9.2,.03-.66,0-1.33,.04-2,.03-.75-.02-1.5-.06-2.26-.11-.26-.02-.53-.06-.79-.12-1.23-.24-1.9-1.07-2.2-2.22-.13-.47-.16-.97-.17-1.45-.03-1.16-.02-2.31-.02-3.47,.01-2.35,.03-4.71,.03-7.06,.01-7.51,.02-15.02,.03-22.53,.01-5.64,.02-11.28,.02-16.92-.01-9.64-.03-19.28-.05-28.92-.01-3.55-.04-7.11-.05-10.66,0-.8,.04-1.6,.07-2.4,.03-.69,.29-1.29,.67-1.85,.28-.42,.66-.71,1.15-.86,.9-.29,1.82-.44,2.75-.45,1.56-.01,3.11,0,4.67,.03,.62,0,1.24,.02,1.86,.03,3.51,.02,7.02,.04,10.54,.05,2.35,.02,4.71,.04,7.06,.04h105.86c3.29,0,6.58-.02,9.87-.04,3.11-.02,6.22-.06,9.33-.09,.76-.01,1.51,.06,2.26,.19,.26,.04,.51,.11,.77,.18,1,.28,1.59,.94,1.82,1.93,.16,.69,.26,1.4,.25,2.11,0,1.33,0,2.67-.01,4Z"/><path class="cls-2" d="M260.82,189.94c.01-6.31,.03-12.62,.05-18.92,.01-3.96,.02-7.91,.02-11.86,0-.36,.02-.71-.02-1.07-.05-.57-.12-1.15-.24-1.71-.24-1.04-.9-1.71-1.92-2.02-.17-.05-.35-.09-.52-.13-.82-.22-1.66-.28-2.51-.28-1.86,.02-3.73,.04-5.59,.05-4.18,.03-8.36,.07-12.53,.09-4,.02-8,.05-12,.05-14.4-.01-28.79-.04-43.19-.04-11.15,0-22.31,.04-33.46,.04-14.4-.01-28.79-.03-43.19-.05-3.69,0-7.38-.03-11.06-.05-3.42-.01-6.85-.02-10.27-.04-.53,0-1.06-.01-1.6-.02-1.82-.01-3.64-.01-5.46-.03-.81,0-1.59,.16-2.37,.35-1.11,.28-1.72,1.04-2.03,2.08-.09,.3-.13,.61-.15,.92-.04,.58-.07,1.15-.07,1.73,.01,2.93,.03,5.86,.03,8.79,.02,6.67,.03,13.33,.04,19.99,.01,6.13,.01,12.26,.01,18.39,0,8.57-.01,17.15-.01,25.72-.01,7.33-.01,14.66-.02,21.99,0,4.17-.01,8.35-.02,12.52,0,2.84-.02,5.69-.04,8.53,0,.93-.01,1.86,.01,2.8,.01,.62,.02,1.25,.14,1.85,.23,1.26,.93,2.22,2.41,2.5,.22,.04,.44,.07,.66,.08,.62,.03,1.25,.08,1.87,.08,4.26,0,8.53-.02,12.79-.03,5.2-.01,10.4-.02,15.6-.02,7.47-.01,14.93-.02,22.4-.02,12.66-.01,25.32,0,37.99,0v.02c13.2,0,26.39-.01,39.59,0,9.51,0,19.02,.01,28.53,.02,1.91,0,3.82,.02,5.73,.03,5.02,.01,10.04,.03,15.06,.03,.71,0,1.42-.06,2.13-.11,.31-.03,.62-.09,.92-.16,1.19-.32,1.89-1.1,2.14-2.3,.17-.78,.23-1.58,.22-2.38-.01-1.6-.01-3.2-.02-4.8-.02-5.55-.04-11.1-.05-16.65-.01-3.73-.02-7.46-.03-11.2v-29.31c.01-8.48,.02-16.97,.03-25.45Zm-14.55-12.87c-.01,1.82-.03,3.64-.04,5.46-.02,2.89-.03,5.78-.04,8.66-.02,14.53-.04,29.06-.05,43.58-.01,5.25,.03,10.49,.06,15.73,.02,4.13,.05,8.26,.07,12.39,.01,.76-.01,1.51-.18,2.26-.03,.13-.04,.26-.07,.39-.25,.87-.75,1.51-1.65,1.76-.34,.1-.68,.2-1.03,.23-.58,.06-1.16,.09-1.73,.09-1.51,.01-3.02,.01-4.54,.01-1.6-.01-3.2-.03-4.79-.03-7.6-.01-15.2-.02-22.8-.03-7.83,0-15.65-.01-23.47-.01-6.36-.01-12.71,0-19.07,0-12.53,0-25.06-.01-37.59,0-4.76,0-9.52,.01-14.27,.01-3.69,0-7.38,.02-11.07,.03-3.06,.01-6.13,.02-9.2,.03-.66,0-1.33,.04-2,.03-.75-.02-1.5-.06-2.26-.11-.26-.02-.53-.06-.79-.12-1.23-.24-1.9-1.07-2.2-2.22-.13-.47-.16-.97-.17-1.45-.03-1.16-.02-2.31-.02-3.47,.01-2.35,.03-4.71,.03-7.06,.01-7.51,.02-15.02,.03-22.53,.01-5.64,.02-11.28,.02-16.92-.01-9.64-.03-19.28-.05-28.92-.01-3.55-.04-7.11-.05-10.66,0-.8,.04-1.6,.07-2.4,.03-.69,.29-1.29,.67-1.85,.28-.42,.66-.71,1.15-.86,.9-.29,1.82-.44,2.75-.45,1.56-.01,3.11,0,4.67,.03,.62,0,1.24,.02,1.86,.03,3.51,.02,7.02,.04,10.54,.05,2.35,.02,4.71,.04,7.06,.04h105.86c3.29,0,6.58-.02,9.87-.04,3.11-.02,6.22-.06,9.33-.09,.76-.01,1.51,.06,2.26,.19,.26,.04,.51,.11,.77,.18,1,.28,1.59,.94,1.82,1.93,.16,.69,.26,1.4,.25,2.11,0,1.33,0,2.67-.01,4Z"/></g></g></svg>
